<svg height="39" viewBox="0 0 200 39" width="200" xmlns="http://www.w3.org/2000/svg"
     xmlns:xlink="http://www.w3.org/1999/xlink">
  <linearGradient id="audioprivet" x1="50%" x2="50%" y1="24.875%" y2="87.234375%">
    <stop offset="0" stop-color="#ff4242"/>
    <stop offset="1" stop-color="#ff68aa"/>
  </linearGradient>
  <g fill="none">
    <path
      d="m22.7137805 38.9476158c-2.1399256 0-4.226353-1.4667562-4.6543381-3.8240429-.0534982-.2619208-.0534982-.5238415-.0534982-.8381464 0-1.728677 0-3.4049698 0-5.1336468 0-.2095366-.0534981-.1571524.1604945-.2095366 2.4609144-.7857622 4.3333492-2.8811283 4.7613343-5.3955675.374487-2.1477501-.1604944-4.0335796-1.551446-5.7098724-.8559702-.9952988-1.925933-1.7286769-3.2098883-2.1477501-.1604945-.0523842-.1604945 0-.1604945-.2095366 0-3.6145064 0-7.22901281 0-10.84351919 0-2.25251847 1.6049442-4.13834788 3.9053642-4.55742108 1.1769591-.20953661 2.30042 0 3.3168846.6286098 1.3374535.83814641 2.674907 1.62390866 4.0658586 2.46205507 4.226353 2.56682337 8.452706 5.13364674 12.6790589 7.7004701 2.5679107 1.5715245 5.1893195 3.143049 7.7572302 4.7145736 1.1769591.7333781 1.9794312 1.7810611 2.1934237 3.143049.3209888 1.9382135-.374487 3.5097381-2.0329293 4.6098052-.7489739.5238415-1.551446.9952989-2.3539181 1.4667562-2.9958958 1.8334453-5.9382934 3.6145064-8.9341892 5.4479517-3.3703828 2.0429818-6.7407655 4.0859637-10.1111483 6.1289456-1.0164646.6286098-2.0329293 1.2572196-3.1028921 1.8858294-.6419776.4190732-1.3374534.6286098-2.1399255.7333781-.2139926-.0523842-.374487-.0523842-.5349814-.0523842zm4.8683306-12.9388851c3.5308772-2.2001343 7.0617544-4.3478845 10.5926316-6.5480188 0-.0523842-.0534982-.0523842-.0534982-.0523842-3.477379-2.1477501-7.0082562-4.2955003-10.4856352-6.4956346-.0534982 4.3478845-.0534982 8.695769-.0534982 13.0960376z"
      fill="url(#audioprivet)"/>
    <path
      d="m11.0010634 22.5c-.0523194-2.4069767 1.9358177-4.5 4.4994683-4.5 2.5113311 0 4.4994683 2.0930233 4.4994683 4.5 0 2.3546512-1.8834984 4.5-4.4994683 4.5-2.6682894 0-4.5517877-2.1453488-4.4994683-4.5z"
      fill="#0096ff"/>
    <path
      d="m10.9738759 7c2.3006423 0 4.0261241 1.84172662 4.0261241 3.971223 0 2.2446043-1.7829978 4.028777-3.9686081 4.028777-2.12809416 0-4.02612411-1.7266187-4.02612411-3.971223-.11503211-2.18705038 1.66796572-3.97122304 3.96860811-4.028777z"
      fill="#ffc800"/>
    <path
      d="m5 17.4755835c0 1.3631849-1.1 2.5244165-2.5 2.5244165s-2.5-1.1107433-2.5-2.4739282c0-1.3126966 1.05-2.5244165 2.5-2.5244165 1.35-.0504883 2.5 1.0602549 2.5 2.4739282z"
      fill="#f00"/>
    <path
      d="m61.132 20 1.116-2.7h5.85l1.116 2.7h3.06l-5.634-12.6h-2.88l-5.616 12.6zm6.048-4.914h-3.996l1.998-4.824zm7.866 8.55c.924 0 1.713-.228 2.367-.684s1.203-1.242 1.647-2.358l4.374-10.278h-2.7l-2.736 6.57-2.718-6.57h-2.898l4.194 9.756-.036.09c-.192.432-.408.741-.648.927s-.552.279-.936.279c-.276 0-.555-.054-.837-.162s-.531-.258-.747-.45l-1.026 1.998c.312.276.714.492 1.206.648s.99.234 1.494.234zm11.178-1.548v-2.088h6.804v2.088h2.61v-4.392h-1.386v-7.38h-8.442l-.126 3.348c-.06 1.284-.204 2.274-.432 2.97s-.642 1.05-1.242 1.062h-.396v4.392zm5.22-4.392h-4.086c.312-.324.525-.798.639-1.422s.189-1.428.225-2.412l.054-1.242h3.168zm8.55 2.304 4.698-5.76v5.76h2.79v-9.684h-2.574l-4.716 5.76v-5.76h-2.79v9.684zm14.724.144c1.02 0 1.932-.213 2.736-.639s1.434-1.017 1.89-1.773.684-1.614.684-2.574-.228-1.818-.684-2.574-1.086-1.347-1.89-1.773-1.716-.639-2.736-.639-1.935.213-2.745.639-1.443 1.017-1.899 1.773-.684 1.614-.684 2.574.228 1.818.684 2.574 1.089 1.347 1.899 1.773 1.725.639 2.745.639zm0-2.304c-.72 0-1.314-.243-1.782-.729s-.702-1.137-.702-1.953.234-1.467.702-1.953 1.062-.729 1.782-.729 1.311.243 1.773.729.693 1.137.693 1.953-.231 1.467-.693 1.953-1.053.729-1.773.729zm10.35 2.16v-10.224h5.688v10.224h2.898v-12.6h-11.484v12.6zm14.292 3.492v-4.518c.708.78 1.68 1.17 2.916 1.17.9 0 1.719-.207 2.457-.621s1.317-.996 1.737-1.746.63-1.623.63-2.619-.21-1.869-.63-2.619-.999-1.332-1.737-1.746-1.557-.621-2.457-.621c-1.332 0-2.346.42-3.042 1.26v-1.116h-2.682v13.176zm2.43-5.652c-.72 0-1.311-.243-1.773-.729s-.693-1.137-.693-1.953.231-1.467.693-1.953 1.053-.729 1.773-.729 1.311.243 1.773.729.693 1.137.693 1.953-.231 1.467-.693 1.953-1.053.729-1.773.729zm9.864 2.16 4.698-5.76v5.76h2.79v-9.684h-2.574l-4.716 5.76v-5.76h-2.79v9.684zm15.354 0c1.308 0 2.292-.24 2.952-.72s.99-1.158.99-2.034c0-1.152-.57-1.92-1.71-2.304.456-.204.807-.489 1.053-.855s.369-.789.369-1.269c0-.792-.342-1.407-1.026-1.845s-1.632-.657-2.844-.657h-4.95v9.684zm-.468-5.706h-2.124v-2.07h2.124c.984 0 1.476.342 1.476 1.026 0 .696-.492 1.044-1.476 1.044zm.234 3.798h-2.358v-2.142h2.412c.516 0 .894.087 1.134.261s.36.447.36.819c0 .708-.516 1.062-1.548 1.062zm10.998 2.052c1.752 0 3.084-.522 3.996-1.566l-1.494-1.62c-.336.324-.699.561-1.089.711s-.837.225-1.341.225c-.732 0-1.344-.174-1.836-.522s-.804-.822-.936-1.422h7.326c.036-.468.054-.72.054-.756 0-1.008-.219-1.893-.657-2.655s-1.041-1.347-1.809-1.755-1.626-.612-2.574-.612c-.972 0-1.851.213-2.637.639s-1.404 1.02-1.854 1.782-.675 1.617-.675 2.565c0 .96.228 1.818.684 2.574s1.104 1.347 1.944 1.773 1.806.639 2.898.639zm2.034-5.832h-4.77c.096-.624.36-1.116.792-1.476s.966-.54 1.602-.54c.624 0 1.152.183 1.584.549s.696.855.792 1.467zm9.666 5.688v-7.38h3.276v-2.304h-9.342v2.304h3.276v7.38zm7.44-4.86 2.46-9.14h-3.72l-1.22 9.14zm-1.96 5.02c.56 0 1.033333-.19 1.42-.57s.58-.8433333.58-1.39c0-.4666667-.173333-.8566667-.52-1.17s-.78-.47-1.3-.47c-.573333 0-1.053333.18-1.44.54s-.58.82-.58 1.38c0 .4666667.173333.8633333.52 1.19s.786667.49 1.32.49z"
      fill="#000"/>
  </g>
</svg>
